<svg width="24" height="24" viewBox="0 0 24 24" fill="none" xmlns="http://www.w3.org/2000/svg">
<path d="M14.046 2.24206L9.89801 2.23206H9.89601C5.52201 2.23206 2.09601 5.65906 2.09601 10.0341C2.09601 14.1321 5.28201 17.2401 9.56101 17.4041V21.2321C9.56101 21.3401 9.60501 21.5181 9.68101 21.6351C9.82301 21.8601 10.065 21.9821 10.313 21.9821C10.451 21.9821 10.59 21.9441 10.715 21.8641C10.979 21.6961 17.188 17.7241 18.803 16.3581C20.705 14.7481 21.843 12.3881 21.846 10.0461V10.0291C21.84 5.66206 18.416 2.24206 14.046 2.24106V2.24206ZM17.833 15.2141C16.699 16.1741 12.971 18.6191 11.061 19.8571V16.6701C11.061 16.2561 10.726 15.9201 10.311 15.9201H9.91501C6.25501 15.9201 3.59701 13.4441 3.59701 10.0341C3.59701 6.50006 6.36501 3.73206 9.89701 3.73206L14.044 3.74206H14.046C17.578 3.74206 20.346 6.50806 20.348 10.0381C20.345 11.9481 19.406 13.8821 17.834 15.2141H17.833Z" fill="#657786"/>
</svg>
