<svg width="24" height="24" viewBox="0 0 24 24" fill="none" xmlns="http://www.w3.org/2000/svg">
<path d="M19 10.5V8.8H14.6V15.2H16.3V13.2H18.3V11.5H16.3V10.5H19V10.5ZM11.7 8.8H13.4V15.2H11.7V8.8ZM8.1 10.4C8.5 10.4 9 10.6 9.3 10.9L10.5 9.9C9.9 9.2 9 8.8 8.1 8.8C6.3 8.8 4.9 10.2 4.9 12C4.9 13.8 6.3 15.2 8.1 15.2C9.1 15.2 9.9 14.8 10.5 14.1V11.6H7.7V12.8H8.9V13.4C8.7 13.5 8.4 13.6 8.1 13.6C7.2 13.6 6.5 12.9 6.5 12C6.5 11.2 7.2 10.4 8.1 10.4V10.4Z" fill="#1DA1F2"/>
<path d="M20.5 2.02H3.5C2.26 2.02 1.25 3.027 1.25 4.267V19.774C1.25 21.012 2.26 22.02 3.5 22.02H20.5C21.74 22.02 22.75 21.012 22.75 19.774V4.267C22.75 3.027 21.74 2.02 20.5 2.02V2.02ZM21.25 19.774C21.25 20.184 20.914 20.52 20.5 20.52H3.5C3.086 20.52 2.75 20.184 2.75 19.774V4.267C2.75 3.855 3.086 3.52 3.5 3.52H20.5C20.914 3.52 21.25 3.855 21.25 4.267V19.774Z" fill="#1DA1F2"/>
</svg>
