<svg width="24" height="24" viewBox="0 0 24 24" fill="none" xmlns="http://www.w3.org/2000/svg">
<path d="M22.58 7.34998L12.475 1.89698C12.178 1.73698 11.821 1.73698 11.525 1.89698L1.42499 7.34998C0.938988 7.61398 0.757988 8.21998 1.01999 8.70598C1.19999 9.04098 1.54499 9.23098 1.89999 9.23098C2.05999 9.23098 2.22399 9.19298 2.37499 9.11098L3.10899 8.71498L4.69899 19.965C4.91499 21.179 6.00899 22.027 7.35899 22.027H16.641C17.991 22.027 19.085 21.179 19.303 19.939L20.891 8.71398L21.628 9.11198C22.113 9.37498 22.72 9.19398 22.982 8.70798C23.245 8.22198 23.062 7.61498 22.578 7.35298L22.58 7.34998ZM12 15.435C10.205 15.435 8.74999 13.98 8.74999 12.185C8.74999 10.39 10.205 8.93498 12 8.93498C13.795 8.93498 15.25 10.39 15.25 12.185C15.25 13.98 13.795 15.435 12 15.435Z" fill="#1DA1F2"/>
</svg>
