<svg width="24" height="24" viewBox="0 0 24 24" fill="none" xmlns="http://www.w3.org/2000/svg">
<path d="M19.39 14.882C17.81 14.882 16.528 13.599 16.528 12.022C16.528 10.445 17.811 9.16 19.388 9.16C20.965 9.16 22.25 10.443 22.25 12.02C22.25 13.597 20.966 14.882 19.39 14.882ZM19.39 10.659C18.64 10.659 18.028 11.269 18.028 12.019C18.028 12.769 18.638 13.379 19.388 13.379C20.138 13.379 20.75 12.769 20.75 12.019C20.75 11.269 20.14 10.659 19.39 10.659ZM12 14.882C10.422 14.882 9.14 13.599 9.14 12.022C9.14 10.445 10.42 9.158 12 9.158C13.58 9.158 14.86 10.44 14.86 12.018C14.86 13.596 13.578 14.88 12 14.88V14.882ZM12 10.659C11.25 10.659 10.64 11.269 10.64 12.019C10.64 12.769 11.25 13.381 12 13.381C12.75 13.381 13.36 12.771 13.36 12.021C13.36 11.271 12.75 10.658 12 10.658V10.659ZM4.61 14.882C3.033 14.882 1.75 13.599 1.75 12.022C1.75 10.445 3.034 9.16 4.61 9.16C6.186 9.16 7.472 10.443 7.472 12.02C7.472 13.597 6.189 14.882 4.612 14.882H4.61ZM4.61 10.659C3.86 10.659 3.25 11.269 3.25 12.019C3.25 12.769 3.86 13.379 4.61 13.379C5.36 13.379 5.972 12.769 5.972 12.019C5.972 11.269 5.362 10.659 4.612 10.659H4.61Z" fill="#1DA1F2"/>
</svg>
