<svg width="23" height="22" viewBox="0 0 23 22" fill="none" xmlns="http://www.w3.org/2000/svg">
<path d="M22.25 3.25H19.825V0.825001C19.825 0.411001 19.489 0.0750008 19.075 0.0750008C18.661 0.0750008 18.325 0.411001 18.325 0.825001V3.25H15.9C15.486 3.25 15.15 3.586 15.15 4C15.15 4.414 15.486 4.75 15.9 4.75H18.325V7.175C18.325 7.589 18.661 7.925 19.075 7.925C19.489 7.925 19.825 7.589 19.825 7.175V4.75H22.25C22.664 4.75 23 4.414 23 4C23 3.586 22.664 3.25 22.25 3.25ZM19.075 10.126C18.661 10.126 18.325 10.462 18.325 10.876V18.954C18.325 19.368 17.988 19.704 17.575 19.704H3.095C2.683 19.704 2.345 19.368 2.345 18.954V8.298L9.123 12.816C9.491 13.062 9.913 13.186 10.336 13.186C10.758 13.186 11.18 13.062 11.548 12.816L16.078 9.803C16.414 9.58 16.506 9.127 16.282 8.791C16.059 8.459 15.607 8.366 15.27 8.591L10.74 11.605C10.494 11.767 10.177 11.768 9.932 11.605L2.346 6.545V5.5C2.346 5.086 2.683 4.75 3.096 4.75H12.19C12.604 4.75 12.94 4.414 12.94 4C12.94 3.586 12.604 3.25 12.19 3.25H3.096C1.856 3.25 0.846001 4.26 0.846001 5.5V18.955C0.846001 20.195 1.856 21.205 3.096 21.205H17.576C18.816 21.205 19.826 20.195 19.826 18.955V10.877C19.826 10.462 19.489 10.127 19.076 10.127L19.075 10.126Z" fill="#1DA1F2"/>
</svg>
