<svg width="24" height="24" viewBox="0 0 24 24" fill="none" xmlns="http://www.w3.org/2000/svg">
<path d="M21.697 16.4681C21.677 16.4521 19.557 14.8281 19.594 10.4381C19.614 7.90605 18.782 5.65605 17.247 4.10305C15.872 2.71005 14.01 1.94005 12.005 1.93005H11.992C9.98797 1.94005 8.12597 2.71005 6.74997 4.10405C5.21597 5.65705 4.38197 7.90605 4.40397 10.4381C4.44097 14.7681 2.38397 16.4051 2.30197 16.4681C2.04197 16.6611 1.93597 16.9981 2.03697 17.3061C2.13897 17.6141 2.42697 17.8211 2.74897 17.8211H7.66897C7.77097 20.1311 9.66597 21.9811 11.999 21.9811C14.332 21.9811 16.225 20.1311 16.326 17.8211H21.248C21.57 17.8211 21.858 17.6151 21.958 17.3071C22.061 17.0001 21.955 16.6621 21.695 16.4691L21.697 16.4681ZM12 20.4781C10.495 20.4781 9.26997 19.3011 9.17197 17.8201H14.828C14.728 19.3001 13.505 20.4801 12 20.4801V20.4781ZM4.37997 16.3201C5.11997 15.1881 5.92797 13.2921 5.90397 10.4241C5.88597 8.26405 6.54797 6.44205 7.81697 5.15705C8.90997 4.05005 10.397 3.43705 12 3.43005C13.603 3.43805 15.087 4.05005 16.18 5.15805C17.45 6.44305 18.113 8.26405 18.095 10.4251C18.071 13.2931 18.88 15.1901 19.62 16.3211H4.37997V16.3201Z" fill="black"/>
</svg>
