<svg width="24" height="18" viewBox="0 0 24 18" fill="none" xmlns="http://www.w3.org/2000/svg">
<path d="M23.5795 12.028C23.1095 11.558 22.3495 11.558 21.8825 12.028L20.5565 13.354V3.951C20.5565 1.773 18.7845 0.00100009 16.6065 0.00100009H11.4065C10.7435 0.00100009 10.2065 0.539 10.2065 1.201C10.2065 1.863 10.7435 2.401 11.4065 2.401H16.6065C17.4605 2.401 18.1565 3.096 18.1565 3.951V13.354L16.8305 12.028C16.3605 11.558 15.6005 11.558 15.1335 12.028C14.6665 12.498 14.6635 13.258 15.1335 13.725L18.5075 17.1C18.7415 17.333 19.0495 17.45 19.3575 17.45C19.6655 17.45 19.9705 17.334 20.2055 17.1L23.5805 13.724C24.0475 13.254 24.0475 12.494 23.5785 12.027L23.5795 12.028ZM12.5265 15.051H7.3265C6.4725 15.051 5.7765 14.356 5.7765 13.501V4.098L7.1025 5.424C7.3365 5.659 7.6445 5.776 7.9505 5.776C8.2565 5.776 8.5645 5.659 8.8005 5.424C9.2685 4.954 9.2685 4.194 8.8005 3.727L5.4245 0.351C4.9545 -0.117 4.1945 -0.117 3.7275 0.351L0.3525 3.728C-0.1175 4.198 -0.1175 4.958 0.3525 5.425C0.8225 5.892 1.5825 5.895 2.0495 5.425L3.3745 4.098V13.501C3.3745 15.679 5.1475 17.451 7.3245 17.451H12.5245C13.1885 17.451 13.7245 16.913 13.7245 16.251C13.7245 15.589 13.1895 15.051 12.5265 15.051Z" fill="#657786"/>
</svg>
